<mxfile host="Electron" agent="Mozilla/5.0 (Windows NT 10.0; Win64; x64) AppleWebKit/537.36 (KHTML, like Gecko) draw.io/27.0.5 Chrome/134.0.6998.205 Electron/35.3.0 Safari/537.36" version="27.0.5">
  <diagram name="Page-1" id="NzE4oKnLDOMKJGqttIGX">
    <mxGraphModel dx="1034" dy="432" grid="1" gridSize="10" guides="1" tooltips="1" connect="1" arrows="1" fold="1" page="1" pageScale="1" pageWidth="750" pageHeight="380" math="0" shadow="0">
      <root>
        <mxCell id="0" />
        <mxCell id="1" parent="0" />
        <mxCell id="CqVk8KDHjYJSWgBNofz7-1" value="ExperimentRunner" style="swimlane;fontStyle=0;childLayout=stackLayout;horizontal=1;startSize=26;fillColor=none;horizontalStack=0;resizeParent=1;resizeParentMax=0;resizeLast=0;collapsible=1;marginBottom=0;whiteSpace=wrap;html=1;" parent="1" vertex="1">
          <mxGeometry x="20" y="95" width="140" height="52" as="geometry" />
        </mxCell>
        <mxCell id="CqVk8KDHjYJSWgBNofz7-5" value="run()" style="text;strokeColor=none;fillColor=none;align=left;verticalAlign=top;spacingLeft=4;spacingRight=4;overflow=hidden;rotatable=0;points=[[0,0.5],[1,0.5]];portConstraint=eastwest;whiteSpace=wrap;html=1;" parent="CqVk8KDHjYJSWgBNofz7-1" vertex="1">
          <mxGeometry y="26" width="140" height="26" as="geometry" />
        </mxCell>
        <mxCell id="CqVk8KDHjYJSWgBNofz7-6" value="GUI" style="swimlane;fontStyle=0;childLayout=stackLayout;horizontal=1;startSize=26;fillColor=none;horizontalStack=0;resizeParent=1;resizeParentMax=0;resizeLast=0;collapsible=1;marginBottom=0;whiteSpace=wrap;html=1;" parent="1" vertex="1">
          <mxGeometry x="190" y="45" width="140" height="40" as="geometry" />
        </mxCell>
        <mxCell id="CqVk8KDHjYJSWgBNofz7-8" value="ScreenSequencer" style="swimlane;fontStyle=0;childLayout=stackLayout;horizontal=1;startSize=26;fillColor=none;horizontalStack=0;resizeParent=1;resizeParentMax=0;resizeLast=0;collapsible=1;marginBottom=0;whiteSpace=wrap;html=1;" parent="1" vertex="1">
          <mxGeometry x="190" y="165" width="140" height="40" as="geometry" />
        </mxCell>
        <mxCell id="CqVk8KDHjYJSWgBNofz7-15" value="" style="endArrow=open;endSize=12;html=1;rounded=0;exitX=0.5;exitY=1;exitDx=0;exitDy=0;entryX=0;entryY=0.5;entryDx=0;entryDy=0;" parent="1" source="CqVk8KDHjYJSWgBNofz7-1" target="CqVk8KDHjYJSWgBNofz7-8" edge="1">
          <mxGeometry width="160" relative="1" as="geometry">
            <mxPoint x="200" y="155" as="sourcePoint" />
            <mxPoint x="360" y="155" as="targetPoint" />
            <Array as="points">
              <mxPoint x="90" y="185" />
            </Array>
          </mxGeometry>
        </mxCell>
        <mxCell id="CqVk8KDHjYJSWgBNofz7-16" value="" style="endArrow=open;endSize=12;html=1;rounded=0;exitX=0.5;exitY=0;exitDx=0;exitDy=0;entryX=0;entryY=0.5;entryDx=0;entryDy=0;" parent="1" source="CqVk8KDHjYJSWgBNofz7-1" target="CqVk8KDHjYJSWgBNofz7-6" edge="1">
          <mxGeometry width="160" relative="1" as="geometry">
            <mxPoint x="100" y="157" as="sourcePoint" />
            <mxPoint x="220" y="195" as="targetPoint" />
            <Array as="points">
              <mxPoint x="90" y="65" />
            </Array>
          </mxGeometry>
        </mxCell>
        <mxCell id="dzbKlJb6I48dq3a6MDj_-1" value="EventfulScreen" style="swimlane;fontStyle=0;childLayout=stackLayout;horizontal=1;startSize=26;fillColor=none;horizontalStack=0;resizeParent=1;resizeParentMax=0;resizeLast=0;collapsible=1;marginBottom=0;whiteSpace=wrap;html=1;" vertex="1" parent="1">
          <mxGeometry x="390" y="165" width="140" height="40" as="geometry" />
        </mxCell>
        <mxCell id="dzbKlJb6I48dq3a6MDj_-2" value="" style="endArrow=open;endSize=12;html=1;rounded=0;exitX=1;exitY=0.5;exitDx=0;exitDy=0;entryX=0;entryY=0.5;entryDx=0;entryDy=0;" edge="1" parent="1" source="CqVk8KDHjYJSWgBNofz7-8" target="dzbKlJb6I48dq3a6MDj_-1">
          <mxGeometry width="160" relative="1" as="geometry">
            <mxPoint x="100" y="157" as="sourcePoint" />
            <mxPoint x="200" y="195" as="targetPoint" />
          </mxGeometry>
        </mxCell>
        <mxCell id="dzbKlJb6I48dq3a6MDj_-6" value="1..*" style="edgeLabel;html=1;align=center;verticalAlign=middle;resizable=0;points=[];" vertex="1" connectable="0" parent="dzbKlJb6I48dq3a6MDj_-2">
          <mxGeometry x="0.1495" y="3" relative="1" as="geometry">
            <mxPoint x="6" y="-12" as="offset" />
          </mxGeometry>
        </mxCell>
        <mxCell id="dzbKlJb6I48dq3a6MDj_-3" value="Screen" style="swimlane;fontStyle=0;childLayout=stackLayout;horizontal=1;startSize=26;fillColor=none;horizontalStack=0;resizeParent=1;resizeParentMax=0;resizeLast=0;collapsible=1;marginBottom=0;whiteSpace=wrap;html=1;" vertex="1" parent="1">
          <mxGeometry x="570" y="130" width="140" height="40" as="geometry" />
        </mxCell>
        <mxCell id="dzbKlJb6I48dq3a6MDj_-4" value="EventManager" style="swimlane;fontStyle=0;childLayout=stackLayout;horizontal=1;startSize=26;fillColor=none;horizontalStack=0;resizeParent=1;resizeParentMax=0;resizeLast=0;collapsible=1;marginBottom=0;whiteSpace=wrap;html=1;" vertex="1" parent="1">
          <mxGeometry x="570" y="220" width="140" height="40" as="geometry" />
        </mxCell>
        <mxCell id="dzbKlJb6I48dq3a6MDj_-5" value="" style="endArrow=diamondThin;endSize=12;html=1;rounded=0;entryX=0.5;entryY=0;entryDx=0;entryDy=0;endFill=1;exitX=-0.005;exitY=0.389;exitDx=0;exitDy=0;exitPerimeter=0;" edge="1" parent="1" source="dzbKlJb6I48dq3a6MDj_-3" target="dzbKlJb6I48dq3a6MDj_-1">
          <mxGeometry width="160" relative="1" as="geometry">
            <mxPoint x="450" y="80" as="sourcePoint" />
            <mxPoint x="400" y="195" as="targetPoint" />
            <Array as="points">
              <mxPoint x="460" y="145" />
            </Array>
          </mxGeometry>
        </mxCell>
        <mxCell id="dzbKlJb6I48dq3a6MDj_-7" value="" style="endArrow=diamondThin;endSize=12;html=1;rounded=0;entryX=0.5;entryY=1;entryDx=0;entryDy=0;endFill=1;exitX=0;exitY=0.5;exitDx=0;exitDy=0;" edge="1" parent="1" source="dzbKlJb6I48dq3a6MDj_-4" target="dzbKlJb6I48dq3a6MDj_-1">
          <mxGeometry width="160" relative="1" as="geometry">
            <mxPoint x="579" y="156" as="sourcePoint" />
            <mxPoint x="470" y="175" as="targetPoint" />
            <Array as="points">
              <mxPoint x="460" y="240" />
            </Array>
          </mxGeometry>
        </mxCell>
        <mxCell id="dzbKlJb6I48dq3a6MDj_-8" value="" style="endArrow=open;endSize=12;html=1;rounded=0;exitX=0.5;exitY=0;exitDx=0;exitDy=0;entryX=1;entryY=0.5;entryDx=0;entryDy=0;dashed=1;" edge="1" parent="1" source="dzbKlJb6I48dq3a6MDj_-3" target="CqVk8KDHjYJSWgBNofz7-6">
          <mxGeometry width="160" relative="1" as="geometry">
            <mxPoint x="100" y="157" as="sourcePoint" />
            <mxPoint x="200" y="195" as="targetPoint" />
            <Array as="points">
              <mxPoint x="640" y="65" />
            </Array>
          </mxGeometry>
        </mxCell>
        <mxCell id="dzbKlJb6I48dq3a6MDj_-9" value="Event" style="swimlane;fontStyle=0;childLayout=stackLayout;horizontal=1;startSize=26;fillColor=none;horizontalStack=0;resizeParent=1;resizeParentMax=0;resizeLast=0;collapsible=1;marginBottom=0;whiteSpace=wrap;html=1;" vertex="1" parent="1">
          <mxGeometry x="570" y="310" width="140" height="40" as="geometry" />
        </mxCell>
        <mxCell id="dzbKlJb6I48dq3a6MDj_-10" value="" style="endArrow=diamondThin;endSize=12;html=1;rounded=0;entryX=0.5;entryY=1;entryDx=0;entryDy=0;endFill=1;exitX=0.5;exitY=0;exitDx=0;exitDy=0;" edge="1" parent="1" source="dzbKlJb6I48dq3a6MDj_-9" target="dzbKlJb6I48dq3a6MDj_-4">
          <mxGeometry width="160" relative="1" as="geometry">
            <mxPoint x="580" y="250" as="sourcePoint" />
            <mxPoint x="470" y="215" as="targetPoint" />
          </mxGeometry>
        </mxCell>
        <mxCell id="dzbKlJb6I48dq3a6MDj_-11" value="1..*" style="edgeLabel;html=1;align=center;verticalAlign=middle;resizable=0;points=[];" vertex="1" connectable="0" parent="dzbKlJb6I48dq3a6MDj_-10">
          <mxGeometry x="-0.5283" y="-1" relative="1" as="geometry">
            <mxPoint x="13" as="offset" />
          </mxGeometry>
        </mxCell>
      </root>
    </mxGraphModel>
  </diagram>
</mxfile>
